<svg width="260" height="227" viewBox="0 0 260 227" fill="none" xmlns="http://www.w3.org/2000/svg">
<path d="M60.8837 0L0 153.798L73.137 227H187.629L260 153.798L201.797 0L179.588 45.4739H85.7732L60.8837 0Z" fill="#FF8E31"/>
<path d="M82.8685 71L86.3255 45H180.239L82.8685 71Z" fill="#DA4134"/>
<path d="M130 170.572C124.87 176.344 117.26 180 108.765 180C93.3186 180 80.7968 167.912 80.7968 153C80.7968 138.088 93.3186 126 108.765 126C117.26 126 124.87 129.656 130 135.428C135.129 129.656 142.74 126 151.235 126C166.681 126 179.203 138.088 179.203 153C179.203 167.912 166.681 180 151.235 180C142.74 180 135.129 176.344 130 170.572Z" fill="white"/>
<ellipse cx="108.247" cy="157.5" rx="13.9841" ry="13.5" fill="#232323"/>
<ellipse cx="151.753" cy="157.5" rx="13.9841" ry="13.5" fill="#232323"/>
</svg>
