<svg width="260" height="227" viewBox="0 0 260 227" fill="none" xmlns="http://www.w3.org/2000/svg">
<g clip-path="url(#clip0_723_957)">
<path d="M84.0742 4.0205L133.987 51.3257L187.595 3.80451L178.86 72.5149L249.089 81.942L188.283 120.317L222.25 179.594L155.162 158.736L127.289 223.226L104.437 158.842L35.7122 179.983L74.3048 120.555L16.48 82.4273L87.4558 72.7056L84.0742 4.0205Z" fill="#FF8E31"/>
<path d="M211.566 28.5586L218.733 35.3505L226.429 28.5276L225.175 38.3927L235.258 39.7462L226.528 45.2559L231.405 53.7666L221.773 50.772L217.771 60.0311L214.49 50.7872L204.623 53.8224L210.164 45.2901L201.861 39.8159L212.052 38.4201L211.566 28.5586Z" fill="#4C6FED"/>
<path d="M72.3449 178.679L78.2994 184.322L84.6947 178.653L83.6526 186.85L92.0309 187.975L84.7768 192.553L88.829 199.624L80.8256 197.136L77.5003 204.83L74.7742 197.149L66.5754 199.671L71.1795 192.581L64.2811 188.033L72.7484 186.873L72.3449 178.679Z" fill="#DA4134"/>
<ellipse cx="116.195" cy="111.547" rx="10.8882" ry="13.7287" transform="rotate(-22.7794 116.195 111.547)" fill="white"/>
<ellipse cx="116.195" cy="111.547" rx="7.58753" ry="9.56689" transform="rotate(-22.7794 116.195 111.547)" fill="#232323"/>
<ellipse cx="146.904" cy="98.7164" rx="10.8882" ry="13.7287" transform="rotate(-22.7794 146.904 98.7164)" fill="white"/>
<ellipse cx="146.906" cy="99.3743" rx="7.58753" ry="9.56689" transform="rotate(-22.7794 146.906 99.3743)" fill="#232323"/>
<path d="M132.892 130.222L149.461 121.701" stroke="#232323" stroke-width="3" stroke-linecap="round"/>
</g>
<defs>
<clipPath id="clip0_723_957">
<rect width="260" height="227" fill="white"/>
</clipPath>
</defs>
</svg>
