<svg width="260" height="227" viewBox="0 0 260 227" fill="none" xmlns="http://www.w3.org/2000/svg">
<path d="M221.099 35.7907C198.711 13.4031 162.414 13.4031 140.026 35.7907L130.445 45.372L120.863 35.7908C98.4759 13.4032 62.1784 13.4031 39.7908 35.7907C17.4032 58.1783 17.4032 94.4757 39.7908 116.863L119.217 196.289C119.226 196.298 119.235 196.307 119.244 196.317L124.788 201.86C127.912 204.985 132.977 204.985 136.102 201.86L221.099 116.863C243.486 94.4758 243.486 58.1783 221.099 35.7907Z" fill="#FF8E31"/>
<ellipse cx="111.35" cy="103.232" rx="11.5" ry="14.5" fill="white"/>
<ellipse cx="149.632" cy="103.91" rx="11.5" ry="14.5" fill="white"/>
<ellipse cx="111.35" cy="103.232" rx="8.01384" ry="10.1044" fill="#232323"/>
<ellipse cx="149.632" cy="103.91" rx="8.01384" ry="10.1044" fill="#232323"/>
<path d="M123.85 128.732V128.732C127.298 133.296 134.123 133.391 137.696 128.924L137.85 128.732" stroke="#232323" stroke-width="3" stroke-linecap="round"/>
</svg>
